<svg xmlns="http://www.w3.org/2000/svg" width="256" height="256" viewBox="0 0 256 256"><rect width="256" height="256" rx="48" fill="#243629"/><g transform="translate(54 16) scale(.40)"><path d="M103 503 Q88 439 108 359 Q140 257 113 165 Q106 103 148 14 Q141 99 179 185 Q229 295 196 384 Q187 434 212 503 Z" fill="#a1ac70" stroke="#243629" stroke-width="8"/><path d="M112 450 q22 -25 61 -27" stroke="#243629" stroke-width="4" fill="none"/><path d="M120 404 q22 -25 61 -27" stroke="#243629" stroke-width="4" fill="none"/><path d="M140 355 q22 -25 61 -27" stroke="#243629" stroke-width="4" fill="none"/><path d="M150 310 q22 -25 61 -27" stroke="#243629" stroke-width="4" fill="none"/><path d="M153 263 q22 -25 61 -27" stroke="#243629" stroke-width="4" fill="none"/><path d="M143 220 q22 -25 61 -27" stroke="#243629" stroke-width="4" fill="none"/><path d="M126 176 q22 -25 61 -27" stroke="#243629" stroke-width="4" fill="none"/><path d="M122 140 q22 -25 61 -27" stroke="#243629" stroke-width="4" fill="none"/><path d="M132 95 q22 -25 61 -27" stroke="#243629" stroke-width="4" fill="none"/><path d="M132 471 Q132 409 164 346 Q188 276 160 213 Q133 153 143 90" stroke="#d7d9a0" stroke-width="12" fill="none"/></g><path d="M35 201 Q53 161 59 131 M54 206 Q73 145 78 123 M76 210 Q91 159 99 145" stroke="#a1ac70" stroke-width="9" fill="none" stroke-linecap="round"/></svg>